<?xml version="1.0" standalone="no"?><!DOCTYPE svg PUBLIC "-//W3C//DTD SVG 1.1//EN" "http://www.w3.org/Graphics/SVG/1.1/DTD/svg11.dtd"><svg t="1541656543079" class="icon" style="" viewBox="0 0 1024 1024" version="1.1" xmlns="http://www.w3.org/2000/svg" p-id="6958" xmlns:xlink="http://www.w3.org/1999/xlink" width="32" height="32"><defs><style type="text/css"></style></defs><path d="M512.17674763 284.43743235c0.00414253 0 0.00828506 0 0.01104673 1e-8 12.61674259 0 23.99763267 5.28723951 32.04931547 13.76698301l346.97353952 366.77065437c7.47725307 7.8984095 12.07269132 18.59164084 12.07407214 30.35640466 0 24.41050406-19.78744899 44.19795306-44.19795304 44.19795307-12.64435945 0-24.04872378-5.30933295-32.10454915-13.82083583l-314.8938455-332.92486493-315.14101599 332.90415234c-8.08482302 8.51288368-19.48780654 13.80978907-32.12664258 13.80978907-11.75924044 0-22.44694841-4.58439153-30.37573642-12.06302544-17.65266908-16.7703118-18.4480334-44.78619125-1.74538281-62.45957294l347.30908382-366.75132261c8.06963376-8.49907526 19.45052384-13.78631478 32.06726643-13.78631478 0.03452102 0 0.0704229 0 0.10494389 1e-8z" p-id="6959"></path></svg>