<?xml version="1.0" standalone="no"?><!DOCTYPE svg PUBLIC "-//W3C//DTD SVG 1.1//EN" "http://www.w3.org/Graphics/SVG/1.1/DTD/svg11.dtd"><svg class="icon" width="32px" height="32.00px" viewBox="0 0 1024 1024" version="1.1" xmlns="http://www.w3.org/2000/svg"><path d="M255.933997 458.621279h71.281463c36.885072 63.762209 105.824187 106.661252 184.78454 106.661251s147.899468-42.899042 184.78454-106.661251h71.281463c-41.792848 100.217493-140.702556 170.658821-256.066003 170.658821s-214.273155-70.442352-256.066003-170.658821z m661.380192 277.320073V138.6365H106.685811v597.304852h213.323527v149.325957l255.987208-149.325957h341.317643z m-565.05945 204.604958c-42.663682 24.886807-96.242971-5.887081-96.242971-55.279001v-85.329411H106.685811c-35.344996 0-63.996546-28.652574-63.996546-63.996546V138.6365c0-35.343973 28.652574-63.996546 63.996546-63.996546h810.627355c35.343973 0 63.996546 28.652574 63.996546 63.996546v597.304852c0 35.343973-28.652574 63.996546-63.996546 63.996546H593.298608L352.254739 940.54631z" /></svg>