<?xml version="1.0" standalone="no"?><!DOCTYPE svg PUBLIC "-//W3C//DTD SVG 1.1//EN" "http://www.w3.org/Graphics/SVG/1.1/DTD/svg11.dtd"><svg class="icon" width="32px" height="32.00px" viewBox="0 0 1024 1024" version="1.1" xmlns="http://www.w3.org/2000/svg"><path d="M979.198538 716.808484C953.709714 775.403812 917.272284 828.061404 870.81311 873.304064 824.324974 918.604654 770.13226 954.231076 709.712164 979.082678 647.032832 1004.890112 580.530176 1017.953134 511.971036 1017.953134 443.44086 1017.953134 376.938204 1004.890112 314.25887 979.111644 304.642634 975.143498 289.754844 973.231836 268.6976 973.231836 254.418066 973.231836 239.211666 974.042844 223.918373 974.853852 207.466496 975.722788 190.95669 976.591726 175.228928 976.591726 143.30997 976.591726 103.425755 973.463552 78.313472 948.98849 46.249691 917.764682 48.450999 861.486518 50.565413 807.091054 51.926747 772.362532 53.317047 736.446464 44.801463 716.808484 18.472667 656.214602 5.12 591.855324 5.12 525.468526 5.12 459.081728 18.443703 394.693486 44.801463 334.099602 70.261321 275.504274 106.727717 222.875648 153.186889 177.604023 199.559168 132.361362 253.780846 96.792869 314.25887 71.854373 439.588572 20.181577 584.469358 20.210542 709.712164 71.854373 770.161226 96.763904 824.382902 132.361362 870.81311 177.604023 917.301248 222.904613 953.738678 275.562204 979.198538 334.099602 1005.556298 394.809344 1018.88 459.197586 1018.88 525.468526 1018.88 591.76843 1005.556298 656.156672 979.198538 716.808484L979.198538 716.808484ZM925.208576 355.533386C902.587246 303.80266 870.146926 257.314523 828.814482 217.31445 787.655826 177.517129 739.690496 146.264357 686.221898 124.396105 575.837916 79.298267 448.13312 79.298267 337.69121 124.396105 284.22261 146.264357 236.228315 177.546094 195.127589 217.31445 153.795145 257.285559 121.354825 303.744732 98.733495 355.533386 75.243227 409.146806 63.338789 466.207012 63.338789 525.034058 63.338789 583.861102 75.243227 640.921308 98.733495 694.505764 111.130331 722.86208 109.624174 761.153244 108.031122 801.761572 106.409106 843.238838 104.555374 890.277302 121.470683 906.642286 130.246949 915.128906 149.595282 919.241874 180.558409 919.241874 195.127589 919.241874 210.391918 918.401902 225.598318 917.619858 241.64469 916.779886 257.575205 915.968878 272.549888 915.968878 300.81931 915.968878 321.528978 919.039122 337.720174 925.67201 448.19105 970.740882 575.779986 970.740882 686.250862 925.67201 739.661532 903.832722 787.626862 872.550986 828.814482 832.7247 870.117962 792.782556 902.558282 746.294418 925.208576 694.505764 948.727808 640.834414 960.632246 583.803172 960.632246 525.034058 960.632246 466.264942 948.727808 409.204736 925.208576 355.533386L925.208576 355.533386ZM729.234286 496.619812 294.765714 496.619812C278.77727 496.619812 265.801142 483.643684 265.801142 467.655242 265.801142 451.637834 278.77727 438.69067 294.765714 438.69067L729.234286 438.69067C745.22273 438.69067 758.198858 451.637834 758.198858 467.655242 758.198858 483.643684 745.22273 496.619812 729.234286 496.619812L729.234286 496.619812ZM352.694858 612.478098 671.305142 612.478098C687.293586 612.478098 700.269714 625.454226 700.269714 641.44267 700.269714 657.431114 687.293586 670.407242 671.305142 670.407242L352.694858 670.407242C336.706414 670.407242 323.730286 657.431114 323.730286 641.44267 323.730286 625.454226 336.706414 612.478098 352.694858 612.478098L352.694858 612.478098Z" fill="#000000" /></svg>