<?xml version="1.0" standalone="no"?><!DOCTYPE svg PUBLIC "-//W3C//DTD SVG 1.1//EN" "http://www.w3.org/Graphics/SVG/1.1/DTD/svg11.dtd"><svg t="1541672379885" class="icon" style="" viewBox="0 0 1024 1024" version="1.1" xmlns="http://www.w3.org/2000/svg" p-id="19476" xmlns:xlink="http://www.w3.org/1999/xlink" width="32" height="32"><defs><style type="text/css"></style></defs><path d="M264.533333 298.666667a226.133333 217.6 0 1 0 452.266667 0 226.133333 217.6 0 1 0-452.266667 0Z" fill="" p-id="19477"></path><path d="M490.666667 550.4c72.533333 0 136.533333-25.6 187.733333-72.533333 51.2-46.933333 76.8-110.933333 76.8-179.2s-29.866667-132.266667-76.8-179.2C627.2 68.266667 563.2 42.666667 490.666667 42.666667c-68.266667 0-136.533333 25.6-187.733334 72.533333C256 166.4 226.133333 230.4 226.133333 298.666667c0 68.266667 29.866667 132.266667 76.8 179.2 51.2 46.933333 119.466667 72.533333 187.733334 72.533333zM942.933333 883.2h-204.8c-12.8 0-21.333333 17.066667-12.8 29.866667l46.933334 64c4.266667 4.266667 8.533333 4.266667 12.8 4.266666 4.266667 0 8.533333 0 8.533333-4.266666 4.266667-4.266667 8.533333-17.066667 0-21.333334l-29.866667-38.4h179.2c8.533333 0 17.066667-8.533333 17.066667-17.066666-4.266667-8.533333-8.533333-17.066667-17.066667-17.066667zM733.866667 857.6H938.666667c12.8 0 21.333333-17.066667 12.8-29.866667l-46.933334-64c-4.266667-4.266667-8.533333-4.266667-12.8-4.266666-4.266667 0-8.533333 0-8.533333 4.266666-4.266667 4.266667-8.533333 17.066667 0 21.333334l29.866667 38.4h-179.2c-8.533333 0-17.066667 8.533333-17.066667 17.066666s8.533333 17.066667 17.066667 17.066667z" fill="" p-id="19478"></path><path d="M691.2 938.666667c-12.8-17.066667-17.066667-38.4-8.533333-59.733334 0-4.266667 4.266667-4.266667 4.266666-8.533333-4.266667-8.533333-8.533333-21.333333-8.533333-29.866667 0-29.866667 25.6-55.466667 55.466667-55.466666h106.666666c-4.266667-17.066667 4.266667-38.4 17.066667-51.2h4.266667c-25.6-46.933333-55.466667-85.333333-98.133334-119.466667-8.533333-8.533333-21.333333-17.066667-34.133333-25.6-25.6-17.066667-51.2-21.333333-85.333333-17.066667-25.6 4.266667-46.933333 17.066667-72.533334 25.6-29.866667 12.8-59.733333 29.866667-89.6 29.866667-29.866667 0-59.733333-17.066667-89.6-29.866667-25.6-12.8-46.933333-21.333333-72.533333-25.6-34.133333-8.533333-59.733333 0-85.333333 17.066667-12.8 8.533333-21.333333 17.066667-34.133334 25.6-42.666667 38.4-81.066667 85.333333-106.666666 136.533333-25.6 55.466667-38.4 128-38.4 187.733334 0 8.533333 8.533333 17.066667 17.066666 17.066666h618.666667V938.666667z" fill="" p-id="19479"></path></svg>