<?xml version="1.0" standalone="no"?><!DOCTYPE svg PUBLIC "-//W3C//DTD SVG 1.1//EN" "http://www.w3.org/Graphics/SVG/1.1/DTD/svg11.dtd"><svg t="1541672502699" class="icon" style="" viewBox="0 0 1024 1024" version="1.1" xmlns="http://www.w3.org/2000/svg" p-id="23459" xmlns:xlink="http://www.w3.org/1999/xlink" width="32" height="32"><defs><style type="text/css"></style></defs><path d="M954.523879 799.861711h-88.504754v-89.832325a44.252377 44.252377 0 0 0-42.924805-44.252376 44.252377 44.252377 0 0 0-44.252377 44.252376v90.496111H689.009618a44.252377 44.252377 0 0 0-44.252377 42.924806 44.252377 44.252377 0 0 0 44.252377 44.252376h88.504754v91.60242a44.252377 44.252377 0 0 0 88.504753 0v-91.381158h88.504754a44.252377 44.252377 0 1 0 0-88.504753z m-284.764045-115.498703c5.752809 3.982714 11.505618 7.965428 16.815903 12.390665v-9.071737a44.252377 44.252377 0 0 0 38.499568-22.126188H733.261995l-2.655143-44.252377H733.261995l-15.045808-10.841833a44.252377 44.252377 0 0 0-18.80726-12.390665 432.788245 432.788245 0 0 0-58.6344-30.976664 309.766638 309.766638 0 1 0-350.036301 0A442.523768 442.523768 0 0 0 28.321632 910.713915a44.252377 44.252377 0 0 0-3.097667 16.37338v4.203976a44.252377 44.252377 0 0 0 88.504754 0A354.019015 354.019015 0 0 1 455.357068 619.533276h22.568712a351.585134 351.585134 0 0 1 177.009508 54.872947 44.252377 44.252377 0 0 0 14.824546 9.956785zM466.641424 531.028522A221.261884 221.261884 0 1 1 689.009618 309.766638a221.261884 221.261884 0 0 1-222.368194 221.261884z" fill="" p-id="23460"></path></svg>