<?xml version="1.0" standalone="no"?><!DOCTYPE svg PUBLIC "-//W3C//DTD SVG 1.1//EN" "http://www.w3.org/Graphics/SVG/1.1/DTD/svg11.dtd"><svg t="1541672393822" class="icon" style="" viewBox="0 0 1024 1024" version="1.1" xmlns="http://www.w3.org/2000/svg" p-id="20824" xmlns:xlink="http://www.w3.org/1999/xlink" width="32" height="32"><defs><style type="text/css"></style></defs><path d="M964.266667 823.466667l-140.8 149.333333s-8.533333 8.533333-12.8 8.533333c-4.266667 0-12.8-8.533333-12.8-8.533333l-76.8-89.6c-4.266667-8.533333-4.266667-21.333333 4.266666-29.866667 8.533333-8.533333 21.333333-4.266667 25.6 4.266667l59.733334 76.8 128-136.533333c8.533333-8.533333 17.066667-8.533333 21.333333 0 12.8 8.533333 12.8 21.333333 4.266667 25.6zM477.866667 554.666667c72.533333 0 136.533333-25.6 187.733333-72.533334 51.2-46.933333 76.8-110.933333 76.8-179.2s-29.866667-132.266667-76.8-179.2C614.4 68.266667 550.4 42.666667 477.866667 42.666667 405.333333 42.666667 341.333333 68.266667 290.133333 115.2 238.933333 166.4 213.333333 230.4 213.333333 298.666667c0 68.266667 29.866667 132.266667 76.8 179.2C341.333333 529.066667 405.333333 554.666667 477.866667 554.666667z" fill="" p-id="20825"></path><path d="M686.933333 908.8c-17.066667-29.866667-12.8-64 12.8-81.066667 12.8-8.533333 25.6-17.066667 42.666667-12.8 17.066667 0 29.866667 12.8 38.4 25.6l29.866667 38.4 68.266666-72.533333c-4.266667-17.066667-12.8-38.4-21.333333-51.2-25.6-51.2-59.733333-98.133333-106.666667-136.533333-8.533333-8.533333-21.333333-17.066667-34.133333-25.6-25.6-17.066667-51.2-21.333333-85.333333-17.066667-25.6 4.266667-51.2 17.066667-72.533334 25.6-29.866667 12.8-59.733333 29.866667-89.6 29.866667-29.866667 0-59.733333-17.066667-89.6-29.866667-25.6-12.8-46.933333-21.333333-72.533333-25.6-34.133333-8.533333-59.733333 0-85.333333 17.066667-12.8 8.533333-21.333333 17.066667-34.133334 25.6-46.933333 38.4-81.066667 85.333333-106.666666 136.533333-25.6 55.466667-38.4 128-38.4 187.733333V938.666667c0 8.533333 8.533333 17.066667 17.066666 17.066666H725.333333l-38.4-46.933333z" fill="" p-id="20826"></path></svg>