<?xml version="1.0" standalone="no"?><!DOCTYPE svg PUBLIC "-//W3C//DTD SVG 1.1//EN" "http://www.w3.org/Graphics/SVG/1.1/DTD/svg11.dtd"><svg class="icon" width="32px" height="32.00px" viewBox="0 0 1024 1024" version="1.1" xmlns="http://www.w3.org/2000/svg"><path d="M417.664471 149.34847c95.988168 0 136.966465 44.669362 137.021724 149.268652 0 0-0.100284 108.195188 0 127.977743-0.029676 25.210172-15.488763 45.794999-39.070854 74.316589-21.718651 26.272363-46.335305 56.04955-46.258557 96.388281-0.044002 96.826256 96.116081 130.912585 166.330236 155.799392 33.750685 11.963473 72.003917 25.52228 89.743954 41.331337 20.001543 17.827017 31.035854 50.132794 36.843116 80.217996H71.587432c7.018857-35.706223 18.251689-67.337641 30.875194-76.81141l2.627851-1.973957 2.411932-2.231831c11.929704-11.036357 48.995901-24.285103 78.780251-34.930557 74.487481-26.621311 176.5019-63.080687 176.411849-161.559583-0.11768-40.159652-24.592095-69.778226-46.185902-95.907327-23.64656-28.615735-39.146579-49.262984-39.143509-74.601068l-0.004093-10.075473c-0.026606-74.556043-0.104377-109.434411-0.267083-118.468158 0.318248-103.867626 42.047652-148.363026 139.436726-148.740626h1.133823m0-63.99757c-0.468674 0-0.926092 0-1.389649 0.00307-73.188906 0.283456-202.917526 21.481244-203.177446 213.317387 0.25992 10.606569 0.25992 107.448174 0.272199 127.999232-0.011256 85.329411 85.206614 128.756479 85.329411 170.658822 0.077771 85.806271-177.961134 96.875374-234.655368 149.325957-60.700477 45.565778-63.924915 191.990662-63.924914 191.990662h831.887564s4.453429-130.98831-63.996547-191.990662-234.694253-63.903425-234.655367-149.325957c-0.079818-42.107003 85.228103-85.329411 85.32941-170.658822-0.101307-20.119223 0-127.994116 0-127.994116C618.582457 108.052948 491.085668 85.3509 417.664471 85.3509z"  /><path d="M861.60233 831.984778h162.321945s2.112104-98.613972-45.791929-137.420812c-84.776825-63.202461-253.466806-70.700225-252.575506-139.899261 1.325182-33.390481 86.110193-68.221778 85.247547-170.658821V277.344632C813.18562 113.958448 665.646356 106.685811 640.307248 106.685811c-7.867178 0-28.575826 0.753153-52.967352 7.236821a276.982382 276.982382 0 0 1 32.66598 58.47274c7.902994-1.218758 14.950504-1.713015 20.302395-1.713015 6.782473 0 15.887852 0.730641 25.962302 2.608408 14.089903 2.625804 27.275203 7.045463 38.486546 13.317307 27.783787 15.544021 42.827411 41.160445 42.118259 89.802282-0.007163 14.265912-0.007163 14.265912-0.007163 54.264904v53.330626c0.23536 28.211529-8.428973 48.027853-27.755134 71.179133-4.900613 5.869684-24.577768 27.312042-28.688389 32.17684-17.618263 20.850887-27.732621 39.021735-28.753881 64.761979l-0.041955 3.560082c0.76134 47.809889 21.13639 72.031547 62.080917 98.275258 40.026622 25.65531 226.498594 67.868737 226.498594 114.028033H831.410704a276.225135 276.225135 0 0 1 30.191626 63.997569z"  /></svg>