<?xml version="1.0" standalone="no"?><!DOCTYPE svg PUBLIC "-//W3C//DTD SVG 1.1//EN" "http://www.w3.org/Graphics/SVG/1.1/DTD/svg11.dtd"><svg t="1541749566923" class="icon" style="" viewBox="0 0 1024 1024" version="1.1" xmlns="http://www.w3.org/2000/svg" p-id="28100" xmlns:xlink="http://www.w3.org/1999/xlink" width="32" height="32"><defs><style type="text/css"></style></defs><path d="M715.535524 880.61742 227.854112 880.61742C178.652437 880.61742 135.479603 832.296362 135.479603 781.58183L135.479603 478.310739C135.479603 434.099228 172.330055 361.278942 227.854112 361.278942l133.334509 0 4.086968-4.132128 171.313958-229.479868 84.629592 64.465711L599.790783 361.278942l253.595237 0c27.886218 0 45.634046 25.063727 54.191841 35.698875l1.828975 3.770849c14.609217 17.612348 17.20591 47.440441 13.389901 67.017244l-0.880617 3.928908-95.67118 314.425579C815.361411 836.40591 765.166218 880.61742 715.535524 880.61742zM406.438809 812.877619l309.096714 0c16.91237 0 39.356825-22.737993 42.879294-40.91484l0.880617-4.967585 95.49054-312.303065c0.338699-3.206351-0.04516-7.654598-0.609658-9.912591l-0.767718-5.012745C851.940904 437.982977 849.592591 429.018743 847.695877 429.018743L555.105094 429.018743l-27.931378-44.730849 19.463903-153.949989-126.40247 166.685072L406.438809 423.554399 406.438809 812.877619zM227.854112 429.018743C220.764013 429.018743 203.219405 462.346725 203.219405 478.310739l0 303.271092C203.219405 793.345976 217.377023 812.877619 227.854112 812.877619L293.53914 812.877619 293.53914 429.018743 227.854112 429.018743z" p-id="28101"></path></svg>