<?xml version="1.0" standalone="no"?><!DOCTYPE svg PUBLIC "-//W3C//DTD SVG 1.1//EN" "http://www.w3.org/Graphics/SVG/1.1/DTD/svg11.dtd"><svg t="1541646497304" class="icon" style="" viewBox="0 0 1025 1024" version="1.1" xmlns="http://www.w3.org/2000/svg" p-id="4401" xmlns:xlink="http://www.w3.org/1999/xlink" width="32.03125" height="32"><defs><style type="text/css"></style></defs><path d="M854.975 169.348l-685.712 0c-43.724 0-79.137 35.414-79.137 79.106l0 527.473c0 43.692 35.414 79.138 79.137 79.138l685.712 0c43.692 0 79.137-35.446 79.137-79.138l0-527.473c-0.032-43.692-35.477-79.106-79.137-79.106l0 0zM868.154 695.2l-165.543-220.73c0 0-9.611-17.853-43.398-17.853-38.335 0-49.861 17.301-49.861 17.301l-144.995 223.811c0 0-7.887 14.996-27.237 14.996-20.255 0-29.928-14.996-29.928-14.996l-76.249-87.154c0 0-19.538-25.872-44.923-25.872-25.284 0-46.286 28.627-46.286 28.627l-83.682 104.262 0-454.987c0-14.544 11.816-26.391 26.391-26.391l659.357 0c14.573 0 26.387 11.848 26.387 26.391l0 432.592-0.031 0zM472.469 406.726c0 51.612-41.809 93.42-93.388 93.42s-93.419-41.842-93.419-93.42c0-51.543 41.841-93.382 93.419-93.382 51.58 0.032 93.388 41.84 93.388 93.382l0 0zM472.469 406.726z" p-id="4402"></path></svg>