<?xml version="1.0" standalone="no"?><!DOCTYPE svg PUBLIC "-//W3C//DTD SVG 1.1//EN" "http://www.w3.org/Graphics/SVG/1.1/DTD/svg11.dtd"><svg t="1541750287895" class="icon" style="" viewBox="0 0 1024 1024" version="1.1" xmlns="http://www.w3.org/2000/svg" p-id="31670" xmlns:xlink="http://www.w3.org/1999/xlink" width="32" height="32"><defs><style type="text/css"></style></defs><path d="M56.91904 876.809216c-11.720704 0-21.653504-9.28768-22.614016-21.144576 4.873216-67.030016 20.903936-131.29728 47.64672-191.092736 26.200064-58.584064 62.247936-111.954944 107.14112-158.631936 44.942336-46.727168 97.918976-85.878784 157.45536-116.366336 60.76928-31.118336 127.434752-52.704256 198.156288-64.161792L544.704512 181.85216c0-19.11296 15.551488-34.661376 34.666496-34.661376 8.206336 0 15.962112 2.90816 22.43072 8.409088l376.667136 325.274624c7.243776 6.777856 11.226112 15.809536 11.226112 25.447424 0 10.089472-4.337664 19.611648-11.91424 26.17856l0 0.1536-0.177152 0.152576L600.877056 858.140672c-6.412288 5.138432-13.84448 7.846912-21.505024 7.846912-19.111936 0-34.661376-15.54944-34.661376-34.661376l0-132.84352c-33.954816 3.499008-67.7632 8.327168-100.498432 14.350336l-0.185344-1.007616c32.94208-6.061056 66.971648-10.911744 101.143552-14.41792l0.564224-0.058368 0 133.978112c0 18.546688 15.08864 33.637376 33.637376 33.637376 7.426048 0 14.636032-2.63168 20.849664-7.611392l376.457216-325.097472 0.016384-0.248832 0.22528-0.113664c7.47008-6.378496 11.752448-15.693824 11.752448-25.570304 0-9.351168-3.8656-18.117632-10.887168-24.685568L601.136128 156.378112c-6.278144-5.339136-13.804544-8.163328-21.764096-8.163328-18.54976 0-33.642496 15.089664-33.642496 33.637376l0 144.431104-0.43008 0.069632c-70.774784 11.42272-137.48736 32.999424-198.283264 64.131072-59.436032 30.435328-112.320512 69.518336-157.184 116.164608-44.811264 46.590976-80.792576 99.863552-106.944512 158.340096C56.193024 724.675584 40.192 788.827136 35.326976 855.65952c0.917504 11.250688 10.402816 20.124672 21.593088 20.124672 4.296704 0 8.457216-1.248256 12.032-3.6096l0.228352-0.150528 0.221184 0.0768c45.446144-32.253952 88.987648-59.602944 125.94688-79.108096 25.819136-14.208 56.116224-27.531264 90.041344-39.593984l0.34304 0.963584c-33.87392 12.046336-64.119808 25.346048-89.897984 39.53152-37.033984 19.544064-80.683008 46.97088-126.2336 79.320064l-0.13312 0.095232-0.16384 0c-0.008192 0-0.088064-0.001024-0.18432-0.03584C65.414144 875.608064 61.232128 876.809216 56.91904 876.809216z" p-id="31671"></path><path d="M56.91904 907.017216c-13.51168 0-26.368-5.118976-36.199424-14.413824-9.587712-9.063424-15.456256-21.31456-16.523264-34.499584l-0.191488-2.354176 0.171008-2.356224c5.129216-70.464512 22.019072-138.14272 50.199552-201.15456 27.62752-61.774848 65.62816-118.042624 112.945152-167.23968 47.26784-49.144832 102.936576-90.297344 165.459968-122.313728 56.247296-28.802048 117.267456-49.790976 181.716992-62.531584L514.497536 181.85216c0-35.769344 29.10208-64.869376 64.874496-64.869376 15.25248 0 30.168064 5.542912 42.001408 15.606784l0.176128 0.150528 377.126912 325.67296 0.447488 0.417792C1012.329472 471.186432 1019.904 488.496128 1019.904 506.322944c0 13.605888-4.230144 26.67008-11.91424 37.515264l0 2.643968-388.23936 335.245312c-11.813888 9.465856-25.777152 14.46912-40.379392 14.46912-35.769344 0-64.869376-29.100032-64.869376-64.869376L514.501632 732.40576c-21.897216 2.837504-43.595776 6.230016-64.82432 10.135552l-11.117568-60.42624c33.728512-6.206464 68.559872-11.17184 103.5264-14.759936l33.855488-3.474432 0 167.445504c0 1.954816 1.473536 3.429376 3.429376 3.429376 0.539648 0 1.263616-0.459776 1.688576-0.769024l366.265344-316.296192 0.338944-5.408768 10.684416-5.033984c0.07168-0.275456 0.114688-0.58368 0.114688-0.924672 0-0.999424-0.536576-1.816576-1.072128-2.382848L581.517312 179.34848c-0.738304-0.6144-1.4592-0.925696-2.14528-0.925696-1.926144 0-3.434496 1.506304-3.434496 3.429376l0 170.155008-25.82528 4.16768c-134.472704 21.702656-251.527168 80.97792-338.5088 171.413504-81.55136 84.790272-131.147776 191.251456-144.200704 309.021696 40.819712-28.250112 79.806464-52.355072 113.6128-70.211584 27.194368-14.944256 58.901504-28.893184 94.251008-41.46176l20.585472 57.887744c-32.346112 11.501568-61.09696 24.13056-85.455872 37.53472l-0.472064 0.254976c-25.014272 13.201408-66.629632 37.31456-122.83392 77.23008l-7.989248 5.67296-3.206144 0C69.876736 905.824256 63.461376 907.017216 56.91904 907.017216z" p-id="31672"></path><path d="M451.265536 743.394304" p-id="31673"></path><path d="M291.595264 780.121088" p-id="31674"></path></svg>