<?xml version="1.0" standalone="no"?><!DOCTYPE svg PUBLIC "-//W3C//DTD SVG 1.1//EN" "http://www.w3.org/Graphics/SVG/1.1/DTD/svg11.dtd"><svg t="1541675756202" class="icon" style="" viewBox="0 0 1024 1024" version="1.1" xmlns="http://www.w3.org/2000/svg" p-id="27360" xmlns:xlink="http://www.w3.org/1999/xlink" width="32" height="32"><defs><style type="text/css"></style></defs><path d="M291.029 86.841c-13.965 14.144-13.892 36.897 0.219 50.898l372.213 368.82-370.63 373.965c-14.004 14.145-13.899 36.898 0.213 50.938 14.152 14.006 36.939 13.898 50.946-0.214l393.889-397.472c0.61-0.615 0.753-1.406 1.33-2.016 0.141-0.148 0.322-0.182 0.468-0.322a35.98 35.98 0 0 0 10.442-25.346c0-9.25-3.565-18.539-10.658-25.559L341.973 86.66c-14.15-14.04-36.938-13.93-50.946 0.181z m0 0z" fill="" p-id="27361"></path></svg>