<?xml version="1.0" standalone="no"?><!DOCTYPE svg PUBLIC "-//W3C//DTD SVG 1.1//EN" "http://www.w3.org/Graphics/SVG/1.1/DTD/svg11.dtd"><svg t="1541646617723" class="icon" style="" viewBox="0 0 1024 1024" version="1.1" xmlns="http://www.w3.org/2000/svg" p-id="5639" xmlns:xlink="http://www.w3.org/1999/xlink" width="32" height="32"><defs><style type="text/css"></style></defs><path d="M890.624 717.6192a199.2704 199.2704 0 0 0-252.416-13.2096L572.6208 588.8l307.2-540.1088L783.7696 0.512 510.72 480.256 237.6704 0.4608 141.568 48.6912l307.2 540.1088-65.5872 115.6608a199.2704 199.2704 0 0 0-252.3648 13.2608 171.3664 171.3664 0 0 0 0 253.1328 199.68 199.68 0 0 0 269.6192 0 171.0592 171.0592 0 0 0 50.1248-167.7312l60.16-105.6768 60.16 105.6768a171.1616 171.1616 0 0 0 50.2272 167.6288 199.68 199.68 0 0 0 269.568 0 171.3664 171.3664 0 0 0-0.0512-253.1328zM323.3792 898.5088a85.5552 85.5552 0 0 1-115.5584 0 73.5232 73.5232 0 0 1 0-108.4928 85.6576 85.6576 0 0 1 115.5584 0 73.5232 73.5232 0 0 1 0 108.4928z m490.24 0a85.6576 85.6576 0 0 1-115.5584 0 73.5232 73.5232 0 0 1 0-108.4928 85.5552 85.5552 0 0 1 115.5584 0 73.5232 73.5232 0 0 1 0 108.4416z" fill="" p-id="5640"></path></svg>