<?xml version="1.0" standalone="no"?><!DOCTYPE svg PUBLIC "-//W3C//DTD SVG 1.1//EN" "http://www.w3.org/Graphics/SVG/1.1/DTD/svg11.dtd"><svg class="icon" width="32px" height="32.00px" viewBox="0 0 1024 1024" version="1.1" xmlns="http://www.w3.org/2000/svg"><path d="M512 725.322503c-117.815289 0-213.323527-95.508237-213.323527-213.323526S394.184711 298.67545 512 298.67545 725.323527 394.183687 725.323527 511.998977 629.815289 725.322503 512 725.322503z m0-63.996546c82.470293 0 149.325957-66.855664 149.325957-149.325957s-66.855664-149.325957-149.325957-149.325957S362.674043 429.529707 362.674043 512s66.855664 149.325957 149.325957 149.325957zM384.005884 172.60208V128.018675c0-35.343973 28.652574-63.996546 63.996546-63.996546h127.994116c35.343973 0 63.996546 28.652574 63.996547 63.996546v44.583405a360.523053 360.523053 0 0 1 21.485337 8.90788l31.531134-31.531134c24.992207-24.992207 65.513086-24.992207 90.505293 0l90.505293 90.505294c24.992207 24.992207 24.992207 65.513086 0 90.505293l-31.531134 31.531134a361.087918 361.087918 0 0 1 8.907881 21.485337h44.583404c35.343973 0 63.996546 28.652574 63.996547 63.996546v127.994116c0 35.343973-28.652574 63.996546-63.996547 63.996547h-44.583404a360.523053 360.523053 0 0 1-8.907881 21.485337l31.531134 31.531134c24.992207 24.992207 24.992207 65.513086 0 90.505293l-90.505293 90.505293c-24.992207 24.992207-65.513086 24.992207-90.505293 0l-31.531134-31.531134a361.087918 361.087918 0 0 1-21.485337 8.907881v44.583404c0 35.344996-28.652574 63.996546-63.996547 63.996547H448.00243c-35.343973 0-63.996546-28.652574-63.996546-63.996547v-44.583404a360.523053 360.523053 0 0 1-21.485337-8.907881l-31.531134 31.531134c-24.992207 24.992207-65.513086 24.992207-90.505293 0l-90.505294-90.505293c-24.992207-24.992207-24.992207-65.513086 0-90.505293l31.531134-31.531134a361.087918 361.087918 0 0 1-8.90788-21.485337h-44.583405c-35.344996 0-63.996546-28.652574-63.996546-63.996547V448.00243c0-35.343973 28.652574-63.996546 63.996546-63.996546h44.583405a360.523053 360.523053 0 0 1 8.90788-21.485337l-31.531134-31.531134c-24.992207-24.992207-24.992207-65.513086 0-90.505293l90.505294-90.505294c24.992207-24.992207 65.513086-24.992207 90.505293 0l31.531134 31.531134a360.523053 360.523053 0 0 1 21.485337-8.90788z m-98.269118 22.629393l-90.505293 90.505293 65.215304 65.215304c-18.769482 29.257348-32.574906 62.004169-40.226167 97.05036h-92.201935v127.994116h92.201935c7.65126 35.047214 21.456684 67.793012 40.226167 97.05036l-65.215304 65.215304 90.505293 90.505294 65.215304-65.215304c29.257348 18.769482 62.004169 32.574906 97.05036 40.226166v92.201935h127.994116V803.77939c35.047214-7.65126 67.793012-21.456684 97.05036-40.226167l65.215304 65.215304 90.505294-90.505293-65.215304-65.215304c18.769482-29.257348 32.574906-62.004169 40.226166-97.05036h92.201935v-127.99514h-92.201935c-7.65126-35.047214-21.456684-67.793012-40.226166-97.05036l65.215304-65.215304-90.505294-90.505293-65.215304 65.215304c-29.257348-18.769482-62.004169-32.574906-97.05036-40.226167V128.018675H448.00243v92.201935c-35.047214 7.65126-67.793012 21.456684-97.05036 40.226167l-65.215304-65.215304z" /></svg>