<?xml version="1.0" standalone="no"?><!DOCTYPE svg PUBLIC "-//W3C//DTD SVG 1.1//EN" "http://www.w3.org/Graphics/SVG/1.1/DTD/svg11.dtd"><svg t="1541749655622" class="icon" style="" viewBox="0 0 1024 1024" version="1.1" xmlns="http://www.w3.org/2000/svg" p-id="30438" xmlns:xlink="http://www.w3.org/1999/xlink" width="32" height="32"><defs><style type="text/css"></style></defs><path d="M751.968 624.096c-55.68 0-103.456 31.968-127.392 78.24l-257.216-156.288a142.368 142.368 0 0 0 16.736-66.016c0-16.352-3.328-31.776-8.32-46.432L645.28 288a143.104 143.104 0 0 0 106.688 48.096 144 144 0 1 0-144-144c0 13.952 2.592 27.168 6.304 39.904l-271.84 146.848a144 144 0 1 0-102.368 245.184 142.848 142.848 0 0 0 85.344-28.576l282.656 171.744c0 0.32-0.096 0.608-0.096 0.864a144.032 144.032 0 0 0 288 0 143.968 143.968 0 0 0-144-143.968z m0-512c44.128 0 80 35.904 80 80s-35.872 80-80 80-80-35.904-80-80 35.872-80 80-80zM240.064 560.032c-44.096 0-80-35.904-80-80s35.904-80 80-80 80 35.904 80 80-35.872 80-80 80z m511.904 288.064c-44.128 0-80-35.872-80-80s35.872-80 80-80 80 35.872 80 80-35.872 80-80 80z" p-id="30439"></path></svg>