<?xml version="1.0" standalone="no"?><!DOCTYPE svg PUBLIC "-//W3C//DTD SVG 1.1//EN" "http://www.w3.org/Graphics/SVG/1.1/DTD/svg11.dtd"><svg class="icon" width="32px" height="32.00px" viewBox="0 0 1024 1024" version="1.1" xmlns="http://www.w3.org/2000/svg"><path d="M512.055259 128.018675c7.970532 0 49.591465 1.049912 86.361926 21.783119 41.956577 23.657816 62.552661 65.517179 62.966077 127.235846-0.401136 83.163071-0.435928 114.226554-0.013303 127.829364-1.787716 56.184627-30.514991 88.292905-58.30594 119.343086-22.89443 25.584702-48.845475 54.581106-48.344055 94.179986-0.481977 114.361631 127.541815 149.96143 230.410693 178.563861 38.431288 10.68741 90.412173 25.139563 108.963691 38.573527 12.342096 15.249309 18.755156 38.318724 21.858844 60.452837H108.128673c3.239787-22.50455 9.81453-45.572942 21.781072-60.348459 18.638499-13.44215 70.579475-27.818579 108.983134-38.451754 102.849436-28.470425 230.782154-63.895239 230.500744-178.160679 0.468674-40.424688-25.321712-69.50705-48.101531-95.196129-27.873838-31.43085-56.69628-63.934125-58.598606-120.632451l-0.077771 0.00307c1.378393-33.58184 0.390903-106.499569 0.075724-125.340683h0.036839c1.079588-135.234007 104.788601-149.83454 149.326981-149.834541m0-63.997569c-29.982872 0-211.69033 8.968256-213.323527 213.323526 0.697895 11.153014 0.697895 124.68679 0 127.994116 4.270257 127.34841 107.691721 170.848133 106.661252 213.323527 0.89437 106.986663-249.697969 109.426225-319.983755 170.657798-54.917774 59.161425-42.664705 170.658821-42.664706 170.658821h938.621471s11.900028-111.497397-42.664705-170.658821c-69.926606-61.231573-320.43401-64.129576-319.984779-170.658821-0.529049-42.503023 103.44807-85.529979 106.661252-213.323527-0.601704-3.064802 0-127.994116 0-127.994116C724.026998 73.005734 543.094182 64.021106 512.055259 64.021106z" /></svg>